<svg xmlns="http://www.w3.org/2000/svg" xmlns:xlink="http://www.w3.org/1999/xlink" width="1500" zoomAndPan="magnify" viewBox="0 0 1125 749.999995" height="1000" preserveAspectRatio="xMidYMid meet" version="1.0"><defs><g/><clipPath id="92a5863d3f"><path d="M 117.082031 265.464844 L 332.476562 265.464844 L 332.476562 480.859375 L 117.082031 480.859375 Z M 117.082031 265.464844 " clip-rule="nonzero"/></clipPath><clipPath id="d7eafeb908"><path d="M 0.0820312 0.464844 L 215.476562 0.464844 L 215.476562 215.859375 L 0.0820312 215.859375 Z M 0.0820312 0.464844 " clip-rule="nonzero"/></clipPath><clipPath id="db7d14724c"><rect x="0" width="216" y="0" height="216"/></clipPath><clipPath id="409f7aecb4"><path d="M 162.925781 311.308594 L 286.628906 311.308594 L 286.628906 435.015625 L 162.925781 435.015625 Z M 162.925781 311.308594 " clip-rule="nonzero"/></clipPath><clipPath id="6652b9335f"><path d="M 0.925781 0.308594 L 124.628906 0.308594 L 124.628906 124.015625 L 0.925781 124.015625 Z M 0.925781 0.308594 " clip-rule="nonzero"/></clipPath><clipPath id="d839e55c90"><rect x="0" width="125" y="0" height="125"/></clipPath><clipPath id="61510718e2"><path d="M 224.777344 373.164062 L 290.722656 373.164062 L 290.722656 439.109375 L 224.777344 439.109375 Z M 224.777344 373.164062 " clip-rule="nonzero"/></clipPath><clipPath id="823193c660"><path d="M 0.777344 0.164062 L 66.722656 0.164062 L 66.722656 66.109375 L 0.777344 66.109375 Z M 0.777344 0.164062 " clip-rule="nonzero"/></clipPath><clipPath id="4f626a50f3"><rect x="0" width="67" y="0" height="67"/></clipPath><clipPath id="c32c08b7e1"><path d="M 258.175781 406.136719 L 337.675781 406.136719 L 337.675781 484.886719 L 258.175781 484.886719 Z M 258.175781 406.136719 " clip-rule="nonzero"/></clipPath></defs><rect x="-112.5" width="1350" fill="#ffffff" y="-74.999999" height="899.999994" fill-opacity="1"/><rect x="-112.5" width="1350" fill="#001639" y="-74.999999" height="899.999994" fill-opacity="1"/><g clip-path="url(#92a5863d3f)"><g transform="matrix(1, 0, 0, 1, 117, 265)"><g clip-path="url(#db7d14724c)"><g clip-path="url(#d7eafeb908)"><path fill="#ffffff" d="M 0.0820312 0.464844 L 215.476562 0.464844 L 215.476562 215.859375 L 0.0820312 215.859375 Z M 0.0820312 0.464844 " fill-opacity="1" fill-rule="nonzero"/></g></g></g></g><g clip-path="url(#409f7aecb4)"><g transform="matrix(1, 0, 0, 1, 162, 311)"><g clip-path="url(#d839e55c90)"><g clip-path="url(#6652b9335f)"><path fill="#001639" d="M 0.925781 0.308594 L 124.628906 0.308594 L 124.628906 124.015625 L 0.925781 124.015625 Z M 0.925781 0.308594 " fill-opacity="1" fill-rule="nonzero"/></g></g></g></g><g clip-path="url(#61510718e2)"><g transform="matrix(1, 0, 0, 1, 224, 373)"><g clip-path="url(#4f626a50f3)"><g clip-path="url(#823193c660)"><path fill="#ffffff" d="M 0.777344 0.164062 L 66.722656 0.164062 L 66.722656 66.109375 L 0.777344 66.109375 Z M 0.777344 0.164062 " fill-opacity="1" fill-rule="nonzero"/></g></g></g></g><g clip-path="url(#c32c08b7e1)"><path fill="#001639" d="M 258.175781 484.453125 L 337.570312 406.226562 L 337.570312 484.453125 Z M 258.175781 484.453125 " fill-opacity="1" fill-rule="nonzero"/></g><g fill="#ffffff" fill-opacity="1"><g transform="translate(359.134323, 422.026641)"><g><path d="M 64.1875 -7.640625 C 68.226562 -7.640625 71.648438 -7.75 74.453125 -7.96875 C 77.253906 -8.195312 79.5625 -8.65625 81.375 -9.34375 C 83.195312 -10.03125 84.601562 -11.023438 85.59375 -12.328125 C 86.582031 -13.640625 87.304688 -15.367188 87.765625 -17.515625 C 88.222656 -19.660156 88.492188 -22.300781 88.578125 -25.4375 C 88.660156 -28.582031 88.703125 -32.335938 88.703125 -36.703125 C 88.703125 -41.066406 88.660156 -44.816406 88.578125 -47.953125 C 88.492188 -51.097656 88.222656 -53.742188 87.765625 -55.890625 C 87.304688 -58.035156 86.582031 -59.757812 85.59375 -61.0625 C 84.601562 -62.375 83.195312 -63.375 81.375 -64.0625 C 79.5625 -64.75 77.257812 -65.203125 74.46875 -65.421875 C 71.6875 -65.648438 68.257812 -65.765625 64.1875 -65.765625 L 18.359375 -65.765625 L 18.359375 -7.640625 Z M 9.171875 0 L 9.171875 -73.40625 L 64.1875 -73.40625 C 69.789062 -73.40625 74.507812 -73.078125 78.34375 -72.421875 C 82.1875 -71.773438 85.359375 -70.78125 87.859375 -69.4375 C 90.359375 -68.101562 92.285156 -66.429688 93.640625 -64.421875 C 94.992188 -62.410156 95.984375 -60.039062 96.609375 -57.3125 C 97.234375 -54.59375 97.597656 -51.519531 97.703125 -48.09375 C 97.816406 -44.675781 97.875 -40.878906 97.875 -36.703125 C 97.875 -32.523438 97.816406 -28.722656 97.703125 -25.296875 C 97.597656 -21.878906 97.234375 -18.804688 96.609375 -16.078125 C 95.984375 -13.359375 94.992188 -10.992188 93.640625 -8.984375 C 92.285156 -6.972656 90.359375 -5.296875 87.859375 -3.953125 C 85.359375 -2.617188 82.1875 -1.625 78.34375 -0.96875 C 74.507812 -0.320312 69.789062 0 64.1875 0 Z M 9.171875 0 "/></g></g></g><g fill="#ffffff" fill-opacity="1"><g transform="translate(460.972968, 422.026641)"><g><path d="M 9.171875 -73.40625 L 18.359375 -73.40625 L 18.359375 0 L 9.171875 0 Z M 9.171875 -73.40625 "/></g></g></g><g fill="#ffffff" fill-opacity="1"><g transform="translate(486.346772, 422.026641)"><g><path d="M 9.171875 0 L 9.171875 -73.40625 L 82.578125 -73.40625 L 82.578125 -65.765625 L 18.359375 -65.765625 L 18.359375 -41.296875 L 79.53125 -41.296875 L 79.53125 -33.640625 L 18.359375 -33.640625 L 18.359375 -7.640625 L 82.578125 -7.640625 L 82.578125 0 Z M 9.171875 0 "/></g></g></g><g fill="#ffffff" fill-opacity="1"><g transform="translate(569.833867, 422.026641)"><g><path d="M 18.359375 0 L 9.171875 0 L 9.171875 -73.40625 L 25.28125 -73.40625 L 92.5625 -9.171875 L 92.5625 -73.40625 L 101.75 -73.40625 L 101.75 0 L 89.515625 0 L 18.359375 -65.765625 Z M 18.359375 0 "/></g></g></g><g fill="#ffffff" fill-opacity="1"><g transform="translate(678.602127, 422.026641)"><g><path d="M 84.109375 -73.40625 L 94.8125 -73.40625 L 55.0625 0 L 42.828125 0 L 3.0625 -73.40625 L 13.765625 -73.40625 L 48.9375 -6.125 Z M 84.109375 -73.40625 "/></g></g></g><g fill="#ffffff" fill-opacity="1"><g transform="translate(774.323573, 422.026641)"><g><path d="M 9.171875 0 L 9.171875 -73.40625 L 82.578125 -73.40625 L 82.578125 -65.765625 L 18.359375 -65.765625 L 18.359375 -41.296875 L 79.53125 -41.296875 L 79.53125 -33.640625 L 18.359375 -33.640625 L 18.359375 -7.640625 L 82.578125 -7.640625 L 82.578125 0 Z M 9.171875 0 "/></g></g></g><g fill="#ffffff" fill-opacity="1"><g transform="translate(857.81069, 422.026641)"><g><path d="M 93.28125 0 L 84.109375 0 L 84.109375 -13.765625 C 84.109375 -15.992188 84.066406 -17.910156 83.984375 -19.515625 C 83.910156 -21.128906 83.640625 -22.507812 83.171875 -23.65625 C 82.710938 -24.800781 81.988281 -25.722656 81 -26.421875 C 80.019531 -27.128906 78.617188 -27.671875 76.796875 -28.046875 C 74.984375 -28.429688 72.679688 -28.695312 69.890625 -28.84375 C 67.109375 -28.988281 63.675781 -29.0625 59.59375 -29.0625 L 18.359375 -29.0625 L 18.359375 0 L 9.171875 0 L 9.171875 -73.40625 L 61.125 -73.40625 C 66.726562 -73.40625 71.445312 -73.207031 75.28125 -72.8125 C 79.125 -72.414062 82.296875 -71.816406 84.796875 -71.015625 C 87.304688 -70.222656 89.238281 -69.234375 90.59375 -68.046875 C 91.945312 -66.867188 92.929688 -65.484375 93.546875 -63.890625 C 94.171875 -62.296875 94.535156 -60.507812 94.640625 -58.53125 C 94.753906 -56.5625 94.8125 -54.382812 94.8125 -52 C 94.8125 -48.9375 94.597656 -46.25 94.171875 -43.9375 C 93.742188 -41.632812 93.019531 -39.671875 92 -38.046875 C 90.976562 -36.421875 89.625 -35.117188 87.9375 -34.140625 C 86.25 -33.171875 84.128906 -32.492188 81.578125 -32.109375 C 84.128906 -31.734375 86.164062 -31.066406 87.6875 -30.109375 C 89.21875 -29.148438 90.394531 -27.90625 91.21875 -26.375 C 92.050781 -24.851562 92.601562 -23.039062 92.875 -20.9375 C 93.144531 -18.832031 93.28125 -16.441406 93.28125 -13.765625 Z M 18.359375 -36.703125 L 61.125 -36.703125 C 65.195312 -36.703125 68.628906 -36.773438 71.421875 -36.921875 C 74.210938 -37.066406 76.515625 -37.328125 78.328125 -37.703125 C 80.140625 -38.085938 81.539062 -38.628906 82.53125 -39.328125 C 83.519531 -40.035156 84.242188 -40.960938 84.703125 -42.109375 C 85.171875 -43.253906 85.441406 -44.628906 85.515625 -46.234375 C 85.597656 -47.847656 85.640625 -49.769531 85.640625 -52 C 85.640625 -54.070312 85.597656 -55.851562 85.515625 -57.34375 C 85.441406 -58.84375 85.171875 -60.101562 84.703125 -61.125 C 84.242188 -62.144531 83.519531 -62.957031 82.53125 -63.5625 C 81.539062 -64.164062 80.140625 -64.632812 78.328125 -64.96875 C 76.515625 -65.300781 74.210938 -65.515625 71.421875 -65.609375 C 68.628906 -65.710938 65.195312 -65.765625 61.125 -65.765625 L 18.359375 -65.765625 Z M 18.359375 -36.703125 "/></g></g></g></svg>